<?xml version="1.0" encoding="UTF-8"?>
<svg version="1.1" xmlns="http://www.w3.org/2000/svg" width="512" height="512">
<path d="M0 0 C0.92892059 0.00215515 1.85784119 0.0043103 2.81491089 0.00653076 C16.2065894 0.05640451 29.18910137 0.43213268 42.3125 3.3125 C43.27784668 3.51117676 44.24319336 3.70985352 45.23779297 3.91455078 C87.96510827 12.8035902 126.46301751 33.35207353 157.72021484 63.76708984 C159.08778763 65.0944029 160.47380336 66.40266686 161.86328125 67.70703125 C168.42118436 73.98537899 173.87528005 81.06936018 179.3125 88.3125 C179.74208008 88.88129883 180.17166016 89.45009766 180.61425781 90.03613281 C206.61170133 124.67937741 224.27685904 168.93361389 224.515625 212.640625 C224.52268463 213.5034761 224.52974426 214.36632721 224.53701782 215.25532532 C224.76038393 250.55966798 224.76038393 250.55966798 221.3125 266.3125 C221.02246094 267.7365918 221.02246094 267.7365918 220.7265625 269.18945312 C212.96915917 306.89905264 196.47707035 341.17814038 171.3125 370.3125 C170.53261719 371.22257812 169.75273437 372.13265625 168.94921875 373.0703125 C166.78333724 375.53316132 164.56905306 377.93245399 162.3125 380.3125 C161.84408691 380.80814453 161.37567383 381.30378906 160.89306641 381.81445312 C152.95076073 390.15983145 144.55144802 397.44456378 135.3125 404.3125 C134.75481934 404.7362793 134.19713867 405.16005859 133.62255859 405.59667969 C99.77954717 431.29248235 54.69430975 448.28257872 11.984375 448.515625 C11.12134262 448.52263931 10.25831024 448.52965363 9.36912537 448.53688049 C6.60019657 448.55428751 3.8314815 448.56073244 1.0625 448.5625 C-0.35511124 448.56351212 -0.35511124 448.56351212 -1.80136108 448.56454468 C-15.32422014 448.549176 -28.43071549 448.21410242 -41.6875 445.3125 C-42.5232959 445.14089355 -43.3590918 444.96928711 -44.22021484 444.79248047 C-81.97832429 436.96381186 -116.47906544 420.54105199 -145.6875 395.3125 C-146.59757812 394.53261719 -147.50765625 393.75273437 -148.4453125 392.94921875 C-150.90816132 390.78333724 -153.30745399 388.56905306 -155.6875 386.3125 C-156.18314453 385.84408691 -156.67878906 385.37567383 -157.18945312 384.89306641 C-165.53483145 376.95076073 -172.81956378 368.55144802 -179.6875 359.3125 C-180.1112793 358.75481934 -180.53505859 358.19713867 -180.97167969 357.62255859 C-188.2296633 348.06333113 -194.16499079 337.95907863 -199.6875 327.3125 C-200.27362061 326.18932373 -200.27362061 326.18932373 -200.87158203 325.04345703 C-217.04885215 293.64611154 -224.13881736 259.50719783 -224.0625 224.375 C-224.06195618 223.42951294 -224.06141235 222.48402588 -224.06085205 221.5098877 C-224.02100529 206.40701066 -223.09684453 192.07580363 -219.6875 177.3125 C-219.38199219 175.90194336 -219.38199219 175.90194336 -219.0703125 174.46289062 C-210.12622908 133.69001651 -189.39390053 97.30203486 -160.6875 67.3125 C-160.21731445 66.81508301 -159.74712891 66.31766602 -159.26269531 65.80517578 C-151.66555066 57.79911237 -143.52805847 50.90500279 -134.6875 44.3125 C-134.12836914 43.88727051 -133.56923828 43.46204102 -132.99316406 43.02392578 C-123.43549756 35.76779893 -113.33192424 29.83389171 -102.6875 24.3125 C-101.93871582 23.92175293 -101.18993164 23.53100586 -100.41845703 23.12841797 C-69.10308985 6.99338662 -35.04663884 -0.14646006 0 0 Z M122.24609375 85.21484375 C121.4370459 85.52349869 120.62799805 85.83215363 119.79443359 86.15016174 C117.11028097 87.17661135 114.43011486 88.21305765 111.75 89.25 C109.85762675 89.97688408 107.96512786 90.70344117 106.07250977 91.4296875 C90.22665984 97.52311279 74.43743316 103.75952087 58.65870667 110.02427673 C48.23546819 114.1623399 37.79648173 118.25803369 27.34561157 122.32577515 C24.83154614 123.30508094 22.31833232 124.28653846 19.80541992 125.26879883 C18.12550077 125.92532493 16.44556907 126.58181892 14.765625 127.23828125 C13.51100212 127.72854546 13.51100212 127.72854546 12.23103333 128.22871399 C6.62466275 130.41692518 1.01124686 132.58626361 -4.60546875 134.74777222 C-8.58910573 136.28365301 -12.56847971 137.83037607 -16.54711914 139.37915039 C-18.45656774 140.11960807 -20.36784152 140.85537816 -22.28100586 141.58618164 C-24.93700673 142.60133187 -27.58614653 143.63274317 -30.234375 144.66796875 C-31.01887024 144.96317917 -31.80336548 145.25838959 -32.6116333 145.56254578 C-37.27386559 147.40855688 -40.41638065 149.35708384 -43.6875 153.3125 C-44.62036372 156.11109117 -44.82195436 157.83958143 -44.84571838 160.73539734 C-44.8555072 161.63983582 -44.86529602 162.54427429 -44.87538147 163.47612 C-44.88113693 164.46586319 -44.8868924 165.45560638 -44.89282227 166.4753418 C-44.90272186 167.51941193 -44.91262146 168.56348206 -44.92282104 169.63919067 C-44.95445585 173.09667682 -44.9792014 176.55417671 -45.00390625 180.01171875 C-45.02447406 182.40640117 -45.04547048 184.80107995 -45.06687927 187.195755 C-45.12211778 193.50368297 -45.17151926 199.8116438 -45.21972656 206.11962891 C-45.26992856 212.55439179 -45.32562142 218.98910685 -45.38085938 225.42382812 C-45.48846273 238.05334431 -45.59008929 250.6829013 -45.6875 263.3125 C-46.42427979 262.83401611 -47.16105957 262.35553223 -47.92016602 261.86254883 C-49.38474243 260.91931763 -49.38474243 260.91931763 -50.87890625 259.95703125 C-51.84256104 259.33417236 -52.80621582 258.71131348 -53.79907227 258.06958008 C-67.0928552 249.98274416 -82.03578679 248.77918272 -96.9609375 252.21484375 C-108.0077958 255.46868776 -116.72030514 261.09448604 -124.6875 269.3125 C-125.54601562 270.15748047 -125.54601562 270.15748047 -126.421875 271.01953125 C-136.78025469 281.99193861 -140.20084715 296.56973325 -140.109375 311.18383789 C-139.68030344 325.4321189 -133.85718641 338.7504791 -124.06640625 349.1171875 C-111.48604151 360.72665381 -96.97733946 366.67290443 -79.765625 366.4609375 C-63.24342094 365.66418147 -49.25967619 357.66169852 -37.98046875 345.9453125 C-29.29242371 335.9696015 -24.60558342 323.14093245 -24.52928162 309.9407196 C-24.5194928 308.65489487 -24.50970398 307.36907013 -24.49961853 306.04428101 C-24.49371509 304.62677039 -24.4879046 303.20925939 -24.48217773 301.79174805 C-24.47259368 300.29348992 -24.46258329 298.79523447 -24.45217896 297.29698181 C-24.42518098 293.23544109 -24.40414382 289.17388882 -24.38417697 285.11230826 C-24.36228586 280.86552568 -24.33491248 276.61877852 -24.30812073 272.37202454 C-24.25823607 264.33278587 -24.21328157 256.2935275 -24.17009836 248.25425035 C-24.12068984 239.10071807 -24.06578513 229.94722134 -24.01041877 220.79372346 C-23.89666362 201.966682 -23.78981052 183.13960696 -23.6875 164.3125 C-22.56593506 163.87494385 -21.44437012 163.4373877 -20.28881836 162.98657227 C8.72258763 151.66880304 8.72258763 151.66880304 37.72424316 140.32608032 C53.66663548 134.0829228 69.61262506 127.84901544 85.5625 121.625 C86.3884668 121.30265381 87.21443359 120.98030762 88.06542969 120.64819336 C90.44460365 119.71974107 92.82384805 118.79146957 95.203125 117.86328125 C95.86088928 117.60662186 96.51865356 117.34996246 97.1963501 117.08552551 C105.56585259 113.82128926 113.93979849 110.56855059 122.3125 107.3125 C121.9825 142.9525 121.6525 178.5925 121.3125 215.3125 C117.0225 212.6725 112.7325 210.0325 108.3125 207.3125 C92.31783291 201.64166349 77.6286391 200.38472253 61.625 207.0625 C60.17102762 207.78004481 58.73398395 208.53257075 57.3125 209.3125 C56.42949219 209.79460937 55.54648437 210.27671875 54.63671875 210.7734375 C39.75655161 219.54100486 31.80331896 232.94804977 27.3125 249.3125 C24.22677267 264.74113667 27.93293206 280.16208316 36.3125 293.3125 C45.94442224 306.42732532 59.59163207 315.24022442 75.703125 317.9921875 C90.22493892 319.77480538 105.21463672 316.73980414 117.3125 308.3125 C131.48427328 297.23427015 139.41778053 284.07770323 142.3125 266.3125 C142.7198781 260.45722172 142.72414769 254.6267108 142.70068359 248.75976562 C142.70475767 247.03198924 142.7101042 245.30421546 142.71661377 243.57644653 C142.73018567 238.92407034 142.72503318 234.27189569 142.71547651 229.61951637 C142.70783682 224.73718379 142.71493652 219.8548675 142.71963501 214.97253418 C142.72507593 206.78536909 142.71794044 198.5982855 142.70361328 190.41113281 C142.68724628 180.94909883 142.69261127 171.48725838 142.7090925 162.02522898 C142.72270285 153.88481188 142.72463055 145.74445302 142.71677649 137.60402822 C142.7121031 132.74874794 142.71146685 127.89355872 142.72138596 123.0382843 C142.73004829 118.48105657 142.72404722 113.92407919 142.70670319 109.36687851 C142.7027363 107.69513744 142.70387585 106.0233753 142.71049118 104.35164261 C142.71868784 102.07012194 142.70840909 99.78940407 142.69345093 97.50793457 C142.69231985 96.23154366 142.69118877 94.95515274 142.69002342 93.64008331 C142.28179036 90.04181779 141.47428672 88.18451164 139.3125 85.3125 C133.26588713 80.81630069 128.74745252 82.68779394 122.24609375 85.21484375 Z " fill="#009DCC" transform="translate(255.6875,31.6875)"/>
</svg>
